{
    "asset": {
        "version": "2.0",
        "generator": "Open Asset Import Library (assimp v5.0.639693989)"
    },
    "accessors": [
        {
            "bufferView": 0,
            "byteOffset": 0,
            "componentType": 5126,
            "count": 22603,
            "type": "VEC3",
            "max": [
                0.587485671043396,
                0.66285240650177,
                1.1446499824523926
            ],
            "min": [
                -0.6060773730278015,
                -0.6638519763946533,
                0.0007205294677987695
            ]
        },
        {
            "bufferView": 1,
            "byteOffset": 0,
            "componentType": 5126,
            "count": 22603,
            "type": "VEC3",
            "max": [
                0.9998908638954163,
                1.0,
                0.9978461265563965
            ],
            "min": [
                -0.9998880624771118,
                -1.0,
                -0.9999972581863403
            ]
        },
        {
            "bufferView": 2,
            "byteOffset": 0,
            "componentType": 5125,
            "count": 23535,
            "type": "SCALAR",
            "max": [
                22602
            ],
            "min": [
                0
            ]
        }
    ],
    "buffers": [
        {
            "byteLength": 636612,
            "uri": "hd649i5e1jxf.bin"
        }
    ],
    "bufferViews": [
        {
            "buffer": 0,
            "byteOffset": 0,
            "byteLength": 271236,
            "target": 34962
        },
        {
            "buffer": 0,
            "byteOffset": 271236,
            "byteLength": 271236,
            "target": 34962
        },
        {
            "buffer": 0,
            "byteOffset": 542472,
            "byteLength": 94140,
            "target": 34963
        }
    ],
    "materials": [
        {
            "name": "DefaultMaterial",
            "pbrMetallicRoughness": {
                "metallicFactor": 0.0
            }
        }
    ],
    "meshes": [
        {
            "primitives": [
                {
                    "mode": 4,
                    "material": 0,
                    "indices": 2,
                    "attributes": {
                        "POSITION": 0,
                        "NORMAL": 1
                    }
                }
            ]
        }
    ],
    "nodes": [
        {
            "name": "<STL_BINARY>",
            "children": [
                1
            ]
        },
        {
            "name": "node",
            "mesh": 0
        }
    ],
    "scenes": [
        {
            "nodes": [
                0
            ]
        }
    ],
    "scene": 0
}
