{
  "accessors": [{
    "bufferView": 0,
    "byteOffset": 0,
    "componentType": 5123,
    "count": 23535,
    "type": "SCALAR",
    "max": [5329],
    "min": [0]
  }, {
    "bufferView": 1,
    "byteOffset": 0,
    "componentType": 5126,
    "count": 5330,
    "type": "VEC3",
    "max": [58.74856948852539, 114.46500396728516, 66.38520050048828],
    "min": [-60.60773849487305, 0.07205294817686081, -66.28524017333984],
    "name": "POSITION"
  }, {
    "bufferView": 1,
    "byteOffset": 12,
    "componentType": 5126,
    "count": 5330,
    "type": "VEC3",
    "max": [1.0000044107437134, 1.0000044107437134, 1.0000044107437134],
    "min": [-0.999893307685852, -1.0000044107437134, -1.0000044107437134],
    "name": "NORMAL"
  }, {
    "bufferView": 1,
    "byteOffset": 24,
    "componentType": 5126,
    "count": 5330,
    "type": "VEC2",
    "max": [0.8775331377983093, 0.9807500839233398],
    "min": [0.000605729001108557, 0.022941887378692627],
    "name": "TEXCOORD_0"
  }],
  "asset": {
    "generator": "Aspose.3D 21.3.1",
    "version": "2.0"
  },
  "buffers": [{
    "uri": "buffer.bin",
    "byteLength": 813484
  }],
  "bufferViews": [{
    "buffer": 0,
    "byteOffset": 0,
    "byteLength": 47072,
    "target": 34963
  }, {
    "buffer": 0,
    "byteOffset": 47076,
    "byteLength": 753120,
    "byteStride": 32,
    "target": 34962
  }, {
    "buffer": 0,
    "byteOffset": 800200,
    "byteLength": 13283
  }],
  "images": [{
    "mimeType": "image/png",
    "bufferView": 2
  }],
  "materials": [{
    "pbrMetallicRoughness": {
      "baseColorFactor": [1, 1, 1, 1],
      "baseColorTexture": {
        "index": 0,
        "texCoord": 0
      },
      "metallicFactor": 0,
      "roughnessFactor": 0.5
    },
    "emissiveFactor": [0, 0, 0],
    "alphaMode": "OPAQUE",
    "doubleSided": true
  }],
  "meshes": [{
    "primitives": [{
      "attributes": {
        "POSITION": 1,
        "NORMAL": 2,
        "TEXCOORD_0": 3
      },
      "indices": 0,
      "material": 0,
      "mode": 4
    }]
  }],
  "nodes": [{
    "matrix": [0.009999999776482582, 0, 0, 0, 0, 0.009999999776482582, 0, 0, 0, 0, 0.009999999776482582, 0, -0.1404215395450592, 0.18561308085918427, -0.11088305711746216, 1],
    "mesh": 0,
    "name": "HeadPitch.001"
  }],
  "samplers": [{
    "magFilter": 9729,
    "minFilter": 9986,
    "wrapS": 10497,
    "wrapT": 10497
  }],
  "scene": 0,
  "scenes": [{
    "nodes": [0]
  }],
  "textures": [{
    "sampler": 0,
    "source": 0
  }]
}
